<svg xmlns="http://www.w3.org/2000/svg" baseProfile="basic" viewBox="5 5 38 38"><linearGradient id="FYwcxc6-1W_XD10eIaYJea" x1="-8.453" x2="50.204" y1="62.676" y2="-7.229" gradientUnits="userSpaceOnUse"><stop offset="0" stop-color="#262626" stop-opacity="0"/><stop offset="1" stop-color="#262626" stop-opacity=".8"/></linearGradient><path fill="url(#FYwcxc6-1W_XD10eIaYJea)" d="M35,43H5V13c0-4.418,3.582-8,8-8h30v30C43,39.418,39.418,43,35,43z M30,16.5 c0,0.828,0.672,1.5,1.5,1.5s1.5-0.672,1.5-1.5c0-0.828-0.672-1.5-1.5-1.5S30,15.672,30,16.5z M18,24c0,3.314,2.686,6,6,6 s6-2.686,6-6s-2.686-6-6-6S18,20.686,18,24z M38,33V10H15c-2.757,0-5,2.243-5,5v23h23C35.757,38,38,35.757,38,33z M12,15 c0-1.654,1.346-3,3-3h21v21c0,1.654-1.346,3-3,3H12V15z"/><linearGradient id="FYwcxc6-1W_XD10eIaYJeb" x1="13.361" x2="88.071" y1="36.68" y2="-52.357" gradientUnits="userSpaceOnUse"><stop offset="0" stop-color="#262626" stop-opacity="0"/><stop offset="1" stop-color="#262626" stop-opacity=".8"/></linearGradient><path fill="url(#FYwcxc6-1W_XD10eIaYJeb)" d="M30,24c0,3.314-2.686,6-6,6s-6-2.686-6-6s2.686-6,6-6S30,20.686,30,24z M31.5,15 c-0.828,0-1.5,0.672-1.5,1.5c0,0.828,0.672,1.5,1.5,1.5s1.5-0.672,1.5-1.5C33,15.672,32.328,15,31.5,15z M38,33V10H15 c-2.757,0-5,2.243-5,5v23h23C35.757,38,38,35.757,38,33z M12,15c0-1.654,1.346-3,3-3h21v21c0,1.654-1.346,3-3,3H12V15z"/></svg>