<svg xmlns="http://www.w3.org/2000/svg" xmlns:xlink="http://www.w3.org/1999/xlink" id="_層_1" viewBox="543.56 296.58 2593.4 644.6"><defs><style>.cls-1{fill:url(#_命名漸層_43-5);}.cls-2{fill:url(#_命名漸層_43-3);}.cls-3{fill:url(#_命名漸層_43-2);}.cls-4{fill:url(#_命名漸層_43);}.cls-5{fill:url(#_命名漸層_43-7);}.cls-6{fill:#ff8f08;}.cls-7{fill:url(#_命名漸層_43-6);}.cls-8{fill:url(#_命名漸層_3);}.cls-9{fill:url(#_命名漸層_43-4);}</style><linearGradient id="_命名漸層_43" x1="637.49" y1="360.49" x2="2646.95" y2="364.29" gradientTransform="matrix(1, 0, 0, 1, 0, 0)" gradientUnits="userSpaceOnUse"><stop offset="0" stop-color="#215aa9"/><stop offset=".16" stop-color="#3550a3"/><stop offset=".5" stop-color="#693794"/><stop offset=".68" stop-color="#88298b"/></linearGradient><linearGradient id="_命名漸層_43-2" x1="609.92" y1="616.94" x2="3900.56" y2="623.16" xlink:href="#_命名漸層_43"/><linearGradient id="_命名漸層_43-3" x1="610.4" y1="362.03" x2="2656.41" y2="365.9" xlink:href="#_命名漸層_43"/><linearGradient id="_命名漸層_43-4" x1="609.92" y1="615.34" x2="3900.57" y2="621.56" xlink:href="#_命名漸層_43"/><linearGradient id="_命名漸層_43-5" x1="585.21" y1="615.4" x2="3875.86" y2="621.62" xlink:href="#_命名漸層_43"/><linearGradient id="_命名漸層_43-6" x1="585.01" y1="723.34" x2="3875.65" y2="729.56" xlink:href="#_命名漸層_43"/><linearGradient id="_命名漸層_43-7" x1="871.01" y1="504.11" x2="2921.73" y2="956.82" xlink:href="#_命名漸層_43"/><linearGradient id="_命名漸層_3" x1="2749.14" y1="628.13" x2="3136.95" y2="628.13" gradientTransform="matrix(1, 0, 0, 1, 0, 0)" gradientUnits="userSpaceOnUse"><stop offset=".68" stop-color="#88298b"/><stop offset=".97" stop-color="#88298b"/></linearGradient></defs><path class="cls-4" d="M1063.03,356.06c-.15,1.73-.24,3.47-.24,5.24s.09,3.5,.24,5.23c0-3.49,0-6.98,0-10.46Z"/><circle class="cls-6" cx="2045.97" cy="404.69" r="72.65"/><path class="cls-6" d="M1686.57,727.04c.26-7.39-3.62-12.66-10.25-16.44-33.68-19.21-67.32-38.46-100.96-57.74-11.26-6.45-22.27-13.37-33.73-19.44-13.5-7.15-26.29,.93-26.35,16.26-.01,3.64,.65,7.28,.65,10.92,.05,37.94,.02,75.87,.04,113.81,0,11.48-.13,22.97,.16,34.44,.21,8.25,6.59,14.78,14.8,14.31,4.91-.28,10.14-1.95,14.45-4.38,19.13-10.78,37.92-22.18,56.96-33.12,24.52-14.09,49.14-28.03,73.79-41.9,6.47-3.64,10.46-8.58,10.44-16.72Z"/><g><path class="cls-3" d="M871.65,808.44c-1-.05-2.01-.08-3.02-.08s-2.02,.03-3.02,.08c-61.52-.03-123.04,.03-184.56,.03q-16.66,0-16.68-16.92c0-139.02,0-278.04-.02-417.06v-10.12c0-33.36-27.03-60.4-60.39-60.4s-59.05,25.73-60.34,57.95c-.03,.81-.06,1.63-.06,2.45s.03,1.57,.06,2.36c-.07,83.12-.06,166.23-.06,249.35h.04c0,88.84-.03,177.67,.07,266.51,0,6.06,.6,12.2,1.68,18.17,2.77,15.3,11.94,24.41,27.44,27.43,5.28,1.02,10.72,1.66,16.09,1.67,83.11,.13,166.22,.12,249.33,.14,10.11,0,20.22,.15,30.33,.14,.03,0,.06,0,.09,0,.03,0,.05,0,.08,0,33.48-.04,60.62-27.1,60.8-60.55,0-.11,0-.22,0-.34,0-.12,0-.24,0-.35-.19-32.45-25.75-58.89-57.86-60.46Z"/><path class="cls-2" d="M1043.69,357.52c-.15,1.76-.25,3.53-.25,5.33s.09,3.57,.25,5.32c0-3.55,0-7.1,0-10.65Z"/><path class="cls-9" d="M1165,365.05c0-2.3-.05-4.6-.12-6.91-2.33-31.33-28.39-56.04-60.28-56.18-.16,0-.32,0-.48,0-31.67,.1-57.61,24.43-60.31,55.42,0,3.55,0,7.1,0,10.65-.02,83.1-.01,166.19-.01,249.29h-.21c0,58.31-.06,116.62,.02,174.94l.28,74.16c-.07,1.19-.11,2.38-.11,3.59,0,33.16,26.64,60.08,59.69,60.56,.3,0,.6,.02,.89,.02,1.4,0,2.79-.06,4.16-.16,30.02-2.04,54.03-25.94,56.24-55.92,.11-1.49,.18-2.99,.18-4.51,0-1.02-.03-2.02-.08-3.03l.13-.15c.1-167.16,.09-334.31,0-501.47v-.31Z"/><path class="cls-1" d="M2512.83,587.54c-20.53-11.21-41.41-21.79-61.8-33.23-25.83-14.5-49.64-31.82-70.96-52.52-28.48-27.64-11.74-70.48,20.2-80.02,14.93-4.46,30.13-4.07,45.28-1.26,15.23,2.82,29.5,8.16,42.86,15.41h0c3.78,2.93,7.91,5.41,12.32,7.38h0s.06,.04,.1,.06h0c1.86,.81,3.76,1.54,5.71,2.18l.05,.02c.93,.3,1.87,.58,2.82,.84,.06,.02,.12,.04,.18,.05,.9,.24,1.8,.46,2.72,.66,.12,.03,.23,.05,.34,.08,.85,.18,1.72,.34,2.58,.49,.17,.03,.35,.07,.52,.09,.81,.13,1.64,.23,2.46,.33,.23,.03,.45,.06,.68,.09,.8,.08,1.61,.14,2.42,.19,.25,.02,.5,.04,.75,.06,1.05,.05,2.12,.08,3.18,.08,33.28,0,60.26-26.98,60.26-60.26,0-21.53-11.3-40.41-28.29-51.07-.37-.23-.74-.46-1.12-.69-9.82-5.97-20-11.37-30.57-16.08-35.54-15.84-72.94-22.63-111.73-23.84-11.12,.98-22.4,1.08-33.33,3.08-46.38,8.49-81.65,33.99-106.48,73.38-39.87,63.25-40.33,126.92,.52,190.22,21.04,32.6,49.19,57.86,82.34,77.35,23.93,14.07,49.04,26.14,73.36,39.57,16.89,9.33,33.47,19.25,49.92,29.35,4.83,2.97,9.08,7.13,13,11.31,24.61,26.22,17.46,79.21-22.22,91.32-25.38,7.74-51.1,9.48-76.69-.66-26.55-10.53-42.76-19.7-67.57-33.73h0c-9.55-5.98-20.83-9.45-32.93-9.45-34.29,0-62.09,27.8-62.09,62.09,0,19.72,9.21,37.29,23.55,48.66h0c.14,.12,.28,.22,.42,.32,.92,.72,1.86,1.41,2.82,2.08,5.35,3.91,5.11,3.47,13.09,8.58,10.9,6.99,22.11,13.51,33.68,19.47,54.79,28.22,112.41,38.64,173.35,26.92,77.28-14.86,141.36-73.15,149.14-159.45,4.95-54.85-11.07-102.34-48.79-142.46-18.86-20.06-42.19-33.94-66.06-46.97Z"/><path class="cls-7" d="M1990.28,536.26c-.36,17.14-.65,29.67-.86,30.37-.75,2.5-.27,5.37-.27,8.09-.01,96.74-.03,193.47,.03,290.2-.11,1.46-.18,2.93-.18,4.42s.07,2.98,.18,4.45c2.28,31.42,28.45,56.21,60.44,56.26,.03,0,.06,0,.09,0,.03,0,.05,0,.08,0,31.42-.04,57.25-23.94,60.33-54.56,.2-2.02,.31-4.07,.31-6.15,0-1.53-.08-3.04-.19-4.54,.13-13.79,.16-27.58,.17-41.36,.03-100.38,.02-200.76,.02-301.14-20.81,14.36-46.03,22.77-73.22,22.77-16.55,0-32.38-3.12-46.92-8.8Z"/><path class="cls-5" d="M1462.53,699.71h-.02c0-15.42-.01-30.83,0-46.25,.04-37.24,33.99-64.8,70.6-57,5.52,1.18,8.72,.34,10.1-5.27,.16-.64,.55-1.23,.83-1.85,24.63-54.23,49.14-108.52,74-162.64,5.39-11.74,9.18-23.45,8.52-36.58-1.34-26.64-22.94-54.48-56.86-55.9-26.63-1.11-46.34,11.26-57.98,35.21-15.61,32.11-30.62,64.51-45.94,96.77-45.59,96-91.22,192-136.82,288-14.31,30.11-28.53,60.27-42.91,90.35-5.66,11.83-7.8,24.34-5.53,37.04,4.05,22.61,17.17,38.63,38.98,46.14,21.44,7.38,41.39,3.49,58.89-11.35,9.33-7.91,14.45-18.56,19.61-29.28,20.57-42.69,41.35-85.28,61.86-127.99,1.61-3.36,2.49-7.39,2.56-11.12,.27-16.09,.12-32.19,.12-48.28Zm358.57,223.44c13.13-.12,24.2-3.11,34.08-10.19,19.48-13.96,28.3-32.85,25.98-56.92-1.01-10.44-5.9-19.24-10.26-28.4-26.16-55-52.04-110.14-78.26-165.12-20.4-42.77-41.12-85.38-61.75-128.03-7-14.47-13.68-29.12-21.37-43.22-6.17-11.32-16.11-17.83-29.57-16.92-13.69,.93-24.3,7.53-30.74,19.57-8.14,15.21-15.52,30.82-23.28,46.24-9.66,19.19-8.49,38.04,1.18,56.89,11.2,21.83,22.03,43.84,33.22,65.67,1.29,2.52,3.55,4.94,5.97,6.42,7.22,4.42,14.73,8.36,22.14,12.47,31.47,17.48,41.81,53.95,23.93,84.99-1.67,2.91-1.59,5.07-.17,7.94,8.41,16.98,16.74,34.01,24.92,51.1,9.94,20.75,19.56,41.65,29.59,62.35,10.98,22.65,29.29,34.24,54.39,35.16Z"/></g><path class="cls-8" d="M3084.82,832.45c-3.18,0-6.3,.3-9.32,.85h-183.16c-10.92,0-19.76-8.85-19.76-19.76v-125.61c0-10.91,8.85-19.76,19.76-19.76h135.92c.87,0,1.71-.07,2.55-.18,2.4,.34,4.84,.52,7.33,.52,28.79,0,52.13-23.34,52.13-52.13s-23.34-52.13-52.13-52.13c-2.71,0-5.36,.21-7.96,.6-.63-.06-1.27-.1-1.92-.1h-135.92c-10.92,0-19.76-8.85-19.76-19.76v-103.09c0-10.92,8.85-19.76,19.76-19.76h169.2c4.46,1.24,9.15,1.91,14,1.91,28.86,0,52.25-23.39,52.25-52.25s-23.39-52.25-52.25-52.25c-2.07,0-4.11,.13-6.12,.37-1.22-.24-2.48-.37-3.76-.37h-296.75c-10.91,0-19.76,8.85-19.76,19.76V916.95c0,10.92,8.85,19.76,19.76,19.76h311.48c.54,0,1.06-.04,1.59-.08,.94,.05,1.89,.08,2.85,.08,28.79,0,52.13-23.34,52.13-52.13s-23.34-52.13-52.13-52.13Z"/></svg>