<svg xmlns="http://www.w3.org/2000/svg" baseProfile="basic" viewBox="6 6 36 36"><linearGradient id="_zRckIf366dQufSrDA5IFa" x1="-10.294" x2="50.002" y1="-10.294" y2="50.002" gradientUnits="userSpaceOnUse"><stop offset="0" stop-color="#262626" stop-opacity="0"/><stop offset="1" stop-color="#262626" stop-opacity=".8"/></linearGradient><path fill="url(#_zRckIf366dQufSrDA5IFa)" d="M36,6H12c-3.314,0-6,2.686-6,6v24c0,3.314,2.686,6,6,6h24c3.314,0,6-2.686,6-6V12 C42,8.686,39.314,6,36,6z M17,36h-5V21c0-1.105,0.895-2,2-2h3V36z M15.122,16.925c-1.861,0.449-3.496-1.186-3.047-3.047 c0.211-0.875,0.928-1.592,1.803-1.803c1.861-0.448,3.495,1.186,3.047,3.047C16.714,15.997,15.997,16.714,15.122,16.925z M36,36h-3 c-1.105,0-2-0.895-2-2l0-6.83c0-1.624-1.216-3.081-2.839-3.166C26.431,23.914,25,25.29,25,27v9h-5V21c0-1.105,0.895-2,2-2h3v2 c0,0,1.5-2,4.5-2c3.866,0,6.5,2.768,6.5,7V36z"/><linearGradient id="_zRckIf366dQufSrDA5IFb" x1="6.932" x2="83.561" y1="9.182" y2="100.504" gradientUnits="userSpaceOnUse"><stop offset="0" stop-color="#262626" stop-opacity="0"/><stop offset="1" stop-color="#262626" stop-opacity=".8"/></linearGradient><path fill="url(#_zRckIf366dQufSrDA5IFb)" d="M14,19h3v17h-5V21C12,19.895,12.895,19,14,19z M14.5,12c-1.381,0-2.5,1.119-2.5,2.5 s1.119,2.5,2.5,2.5s2.5-1.119,2.5-2.5S15.881,12,14.5,12z M29.5,19c-3,0-4.5,2-4.5,2v-2h-3c-1.105,0-2,0.895-2,2v15h5l0-8.83 c0-1.624,1.216-3.081,2.839-3.166C29.569,23.914,31,25.29,31,27v7c0,1.105,0.895,2,2,2h3V26C36,21.768,33.366,19,29.5,19z"/></svg>